# AST/ASF file generated using VICON BodyLanguage
# -----------------------------------------------
:version 1.10
:name VICON
:units
  mass 1.0
  length 0.45
  angle deg
:documentation
   .ast/.asf automatically generated from VICON data using
   VICON BodyBuilder and BodyLanguage model FoxedUp or BRILLIANT.MOD
:root
   order TX TY TZ RX RY RZ
   axis XYZ
   position 0 0 0  
   orientation 0 -0 0 
:bonedata
  begin
     id 1 
     name lhipjoint
     direction 0.515797 -0.759363 0.396637 
     length 2.47888 
     axis 0 -0 0  XYZ
  end
  begin
     id 2 
     name lfemur
     direction 0.34202 -0.939693 0  
     length 6.81885  
     axis 0 -0 20  XYZ
    dof rx ry rz
    limits (-160.0 20.0)
           (-70.0 70.0)
           (-60.0 70.0)
  end
  begin
     id 3 
     name ltibia
     direction 0.342037 -0.939687 0   
     length 7.89258   
     axis 0 -0 20   XYZ
    dof rx
    limits (-10.0 170.0)
  end
  begin
     id 4 
     name lfoot
     direction 0.173497 -0.476678 0.861787   
     length 2.51543   
     axis -90 -1.13533e-015 20   XYZ
    dof rx rz
    limits (-45.0 90.0)
           (-70.0 20.0)
  end
  begin
     id 5 
     name ltoes
     direction 1.53564e-011 -4.21897e-011 1   
     length 1.21388   
     axis -90 -1.13533e-015 20   XYZ
    dof rx
    limits (-90.0 20.0)
  end
  begin
     id 6 
     name rhipjoint
     direction -0.489454 -0.772941 0.403729   
     length 2.43534  
     axis 0 -0 0  XYZ 
  end
  begin
     id 7 
     name rfemur
     direction -0.34202 -0.939693 0   
     length 7.10357   
     axis 0 -0 -20   XYZ
    dof rx ry rz
    limits (-160.0 20.0)
           (-70.0 70.0)
           (-70.0 60.0)
  end
  begin
     id 8 
     name rtibia
     direction -0.34202 -0.939693 0   
     length 9.16127   
     axis 0 -0 -20   XYZ
    dof rx
    limits (-10.0 170.0)
 end
 begin
     id 9 
     name rfoot
     direction -0.270974 -0.748671 0.605033   
     length 1.74894  
     axis -90 1.13533e-015 -20   XYZ
    dof rx rz
    limits (-45.0 90.0)
           (-20.0 70.0)
  end
  begin
     id 10 
     name rtoes
     direction -1.53557e-011 -4.21759e-011 1   
     length 0.787585   
     axis -90 1.13533e-015 -20   XYZ
    dof rx
    limits (-90.0 20.0)
  end
  begin
     id 11 
     name lowerback
     direction -0.0140249 0.999561 0.0260968   
     length 2.16963   
     axis 0 -0 0   XYZ
    dof rx ry rz
    limits (-20.0 45.0)
           (-30.0 30.0)
           (-30.0 30.0)
  end
  begin
     id 12 
     name upperback
     direction 0.00860018 0.999959 -0.002711   
     length 2.1726   
     axis 0 -0 0   XYZ
    dof rx ry rz
    limits (-20.0 45.0)
           (-30.0 30.0)
           (-30.0 30.0)
  end
  begin
     id 13 
     name thorax
     direction 0.015211 0.999782 -0.0143191   
     length 2.17061   
     axis 0 -0 0   XYZ
    dof rx ry rz
    limits (-20.0 45.0)
           (-30.0 30.0)
           (-30.0 30.0)
  end
  begin
     id 14 
     name lowerneck
     direction -0.0140143 0.999447 0.030145   
     length 2.26749   
     axis 0 -0 0   XYZ
    dof rx ry rz
    limits (-20.0 45.0)
           (-30.0 30.0)
           (-30.0 30.0)
  end
  begin
     id 15 
     name upperneck
     direction 0.118062 0.961438 -0.248392   
     length 2.22728   
     axis 0 -0 0   XYZ
    dof rx ry rz
    limits (-20.0 45.0)
           (-30.0 30.0)
           (-30.0 30.0)
  end
  begin
     id 16
     name head
     direction 0.0431885 0.9954 -0.085514  
     length 2.28786  
     axis 0 -0 0   XYZ
    dof rx ry rz
    limits (-20.0 45.0)
           (-30.0 30.0)
           (-30.0 30.0)
  end
  begin
     id 17 
     name lclavicle
     direction 0.912126 0.409548 0.0172323  
     length 4.31571  
     axis 0 -0 0   XYZ
    dof ry rz
    limits (-20.0 10.0)
           (0.0 20.0)
  end
  begin
     id 18 
     name lhumerus
     direction 1 -4.48977e-011 1.93091e-027   
     length 5.13658   
     axis 180 -30 -90   XYZ
    dof rx ry rz
    limits (-60.0 90.0)
           (-90.0 90.0)
           (-90.0 90.0)
  end
  begin
     id 19
     name lradius
     direction 1 -4.48916e-011 6.84018e-027   
     length 3.22473   
     axis 180 -30 -90   XYZ
    dof rx
    limits (-10.0 170.0)
  end
  begin
     id 20
     name lwrist
     direction 1 -4.48987e-011 7.01981e-027   
     length 1.61236   
     axis -4.37994e-015 90 90   XYZ
    dof ry
    limits (-180.0 0.0)
 end
  begin
     id 21 
     name lhand
     direction 1 -4.49037e-011 1.40335e-026   
     length 0.936406   
     axis -8.96029e-015 90 90   XYZ
    dof rx rz
    limits (-90.0 90.0)
           (-45.0 45.0)
  end
  begin
     id 22 
     name lfingers
     direction 1 -4.48886e-011 2.8104e-026   
     length 0.754955   
     axis -1.79203e-014 90 90   XYZ
    dof rx
    limits (0.0 90.0)
  end
  begin
     id 23
     name lthumb
     direction 0.707107 -6.34937e-011 0.707107   
     length 1.08397   
     axis -90 45 -4.48555e-014   XYZ
    dof rx rz
    limits (-45.0 45.0)
           (-45.0 45.0)
  end
  begin
     id 24 
     name rclavicle
     direction -0.947962 0.317997 0.0156638   
     length 4.86918  
     axis 0 -0 0   XYZ 
    dof ry rz
    limits (-10.0 20.0)
           (-20.0 0.0)
  end
  begin
     id 25 
     name rhumerus
     direction -1 -4.48951e-011 2.80534e-018  
     length 5.60911   
     axis 180 30 90   XYZ
    dof rx ry rz
    limits (-90.0 60.0)
           (-90.0 90.0)
           (-90.0 90.0)
  end
  begin
     id 26 
     name rradius
     direction -1 -4.4898e-011 2.11315e-027   
     length 3.38704   
     axis 180 30 90   XYZ
    dof rx
    limits (-10.0 170.0)
  end
  begin
     id 27 
     name rwrist
     direction -1 -4.48933e-011 7.02314e-027   
     length 1.69352   
     axis -4.37994e-015 -90 -90   XYZ
    dof ry
    limits (-180.0 0.0)
  end
  begin
     id 28
     name rhand
     direction -1 -4.48937e-011 1.40458e-026   
     length 0.755878   
     axis -8.96029e-015 -90 -90   XYZ
    dof rx rz
    limits (-90.0 90.0)
           (-45.0 45.0)
  end
  begin
     id 29
     name rfingers
     direction -1 -4.4901e-011 2.80737e-026   
     length 0.609409   
     axis -1.79203e-014 -90 -90   XYZ
    dof rx
    limits (0.0 90.0)
  end
  begin
     id 30
     name rthumb
     direction -0.707107 -6.34968e-011 0.707107   
     length 0.874992   
     axis -90 -45 4.48555e-014   XYZ
    dof rx rz
    limits (-45.0 45.0)
           (-45.0 45.0)
  end
:hierarchy
  begin
    root lhipjoint rhipjoint lowerback
    lhipjoint lfemur
    lfemur ltibia
    ltibia lfoot
    lfoot ltoes
    rhipjoint rfemur
    rfemur rtibia
    rtibia rfoot
    rfoot rtoes
    lowerback upperback
    upperback thorax
    thorax lowerneck lclavicle rclavicle
    lowerneck upperneck
    upperneck head
    lclavicle lhumerus
    lhumerus lradius
    lradius lwrist
    lwrist lhand lthumb
    lhand lfingers
    rclavicle rhumerus
    rhumerus rradius
    rradius rwrist
    rwrist rhand rthumb
    rhand rfingers
  end

#!OML:ASF C:\ViconDB\ViconDB\414\Spring2016\041811\Spring2016.ASF
:FULLY-SPECIFIED
:DEGREES
76
root 9.4286 18.2656 1.25153 -178.684 -4.30096 -178.536
lowerback 3.16293 0.924082 -3.65445
upperback 1.21691 1.09287 0.558685
thorax -0.60311 0.525008 2.58306
lowerneck -10.993 2.08844 -2.89687
upperneck 19.8837 0.48202 9.96985
head 7.89106 0.616726 3.80512
rclavicle 1.30701e-014 -1.07344e-014
rhumerus -38.2212 -17.5659 -84.0114
rradius 33.1923
rwrist 42.8297
rhand -36.0692 -13.5918
rfingers 7.12502
rthumb -9.17656 -43.3721
lclavicle 1.30701e-014 -1.07344e-014
lhumerus -37.6776 -12.257 97.3247
lradius 30.7974
lwrist -27.3428
lhand -25.6466 15.1881
lfingers 7.12502
lthumb 0.887105 45.166
rfemur 175.993 31.3289 -161.495
rtibia 34.2593
rfoot -17.5234 -54.3175
rtoes 1.52667e-013
lfemur 2.65705 -9.85441 -22.4913
ltibia 13.8664
lfoot -19.4024 5.55274
ltoes -2.74571e-014
77
root 9.42914 18.2623 1.19461 -178.676 -4.36558 -178.521
lowerback 3.11341 0.917878 -3.59032
upperback 1.24798 1.08834 0.561202
thorax -0.542094 0.520993 2.5508
lowerneck -11.047 2.09226 -2.85722
upperneck 19.8306 0.473606 10.0342
head 7.88438 0.623652 3.8189
rclavicle -1.1281e-014 6.36111e-015
rhumerus -38.2847 -18.0504 -83.6684
rradius 32.9272
rwrist 43.8078
rhand -36.0548 -13.8853
rfingers 7.12502
rthumb -9.16272 -43.6662
lclavicle -1.1281e-014 6.36111e-015
lhumerus -37.5972 -12.4743 97.3958
lradius 31.0523
lwrist -27.0384
lhand -25.5679 15.2193
lfingers 7.12502
lthumb 0.96306 45.1969
rfemur 178.058 32.9696 -160.319
rtibia 33.182
rfoot -20.8747 -53.7489
rtoes -1.98785e-014
lfemur 3.03638 -9.90529 -22.5039
ltibia 13.5226
lfoot -19.4256 5.58411
ltoes 1.31943e-014
78
root 9.43082 18.2583 1.13529 -178.604 -4.45063 -178.485
lowerback 3.02837 0.898174 -3.48782
upperback 1.21369 1.07005 0.590755
thorax -0.527183 0.513138 2.52526
lowerneck -11.0272 2.09121 -2.93309
upperneck 19.8147 0.461298 10.1481
head 7.87491 0.620792 3.86812
rclavicle -1.40392e-014 -1.05356e-014
rhumerus -38.3557 -17.8754 -83.4299
rradius 32.7363
rwrist 43.852
rhand -36.0495 -13.6304
rfingers 7.12502
rthumb -9.15757 -43.4116
lclavicle -1.40392e-014 -1.05356e-014
lhumerus -37.5491 -12.4326 97.3601
lradius 31.2092
lwrist -27.2542
lhand -25.545 15.207
lfingers 7.12502
lthumb 0.985201 45.1845
rfemur 180.298 35.0011 -158.823
rtibia 32.1666
rfoot -24.9596 -53.3651
rtoes 2.22639e-014
lfemur 3.29387 -9.82393 -22.4458
ltibia 13.2552
lfoot -19.4392 5.45725
ltoes -3.32964e-014
79
root 9.4344 18.2495 1.07453 -178.504 -4.56758 -178.485
lowerback 2.89455 0.880253 -3.51335
upperback 1.19521 1.05264 0.670429
thorax -0.471908 0.50435 2.62399
lowerneck -11.0543 2.09054 -3.07735
upperneck 19.8132 0.475666 10.231
head 7.87609 0.626662 3.92273
rclavicle -2.14439e-014 1.92821e-014
rhumerus -38.4458 -18.1314 -83.0282
rradius 32.553
rwrist 44.1038
rhand -35.9408 -13.4157
rfingers 7.12502
rthumb -9.05269 -43.2014
lclavicle -2.14439e-014 1.92821e-014
lhumerus -37.471 -12.5214 97.5002
lradius 31.48
lwrist -26.9219
lhand -25.6166 14.9815
lfingers 7.12502
lthumb 0.916034 44.9592
rfemur 182.589 37.0228 -157.2
rtibia 31.2513
rfoot -29.2129 -53.1968
rtoes 1.33583e-013
lfemur 3.50674 -9.90706 -22.4398
ltibia 13.0396
lfoot -19.53 5.49627
ltoes 3.62782e-015
80
root 9.44025 18.242 1.01168 -178.465 -4.62008 -178.468
lowerback 2.84933 0.878757 -3.37078
upperback 1.17543 1.05644 0.62127
thorax -0.463841 0.507172 2.49363
lowerneck -11.1117 2.08562 -2.79256
upperneck 19.7994 0.459792 10.037
head 7.8879 0.625846 3.80808
rclavicle 8.12532e-015 1.23246e-014
rhumerus -38.6268 -18.7101 -82.7026
rradius 32.369
rwrist 44.8948
rhand -36.0931 -13.6543
rfingers 7.12502
rthumb -9.1996 -43.4336
lclavicle 8.12532e-015 1.23246e-014
lhumerus -37.4789 -12.8311 97.5153
lradius 31.8577
lwrist -26.4611
lhand -25.538 15.1122
lfingers 7.12502
lthumb 0.991965 45.0897
rfemur 184.859 39.011 -155.431
rtibia 30.4296
rfoot -33.6074 -53.0101
rtoes 4.6118e-014
lfemur 3.80571 -9.83513 -22.3937
ltibia 12.8022
lfoot -19.5814 5.45814
ltoes -1.4238e-014
81
root 9.44269 18.233 0.946863 -178.414 -4.67735 -178.56
lowerback 2.76779 0.885143 -3.40573
upperback 1.15487 1.06816 0.643119
thorax -0.441093 0.513388 2.53634
lowerneck -11.0356 2.07833 -2.89136
upperneck 19.7276 0.470923 10.0786
head 7.84797 0.62649 3.8368
rclavicle -7.37988e-015 -1.59028e-015
rhumerus -38.7423 -18.8904 -82.3757
rradius 32.1931
rwrist 45.1006
rhand -36.0309 -13.5054
rfingers 7.12502
rthumb -9.1396 -43.2874
lclavicle -7.37988e-015 -1.59028e-015
lhumerus -37.5136 -13.0896 97.6616
lradius 32.2161
lwrist -26.3131
lhand -25.6049 14.9839
lfingers 7.12502
lthumb 0.927317 44.9616
rfemur 187.239 41.2334 -153.509
rtibia 29.7539
rfoot -38.5305 -52.8352
rtoes 4.09496e-014
lfemur 4.1467 -9.78989 -22.4954
ltibia 12.4939
lfoot -19.6003 5.33424
ltoes 8.49804e-015
82
root 9.44802 18.2278 0.881098 -178.338 -4.73968 -178.555
lowerback 2.69029 0.893491 -3.37023
upperback 1.11508 1.08465 0.69226
thorax -0.43998 0.523016 2.56718
lowerneck -11.0479 2.05897 -2.93127
upperneck 19.7186 0.459475 10.0684
head 7.84767 0.619085 3.83928
rclavicle -5.09883e-014 -3.97569e-016
rhumerus -38.9451 -19.2221 -81.9692
rradius 32.1617
rwrist 45.1115
rhand -35.9397 -13.4123
rfingers 7.12502
rthumb -9.05159 -43.198
lclavicle -5.09883e-014 -3.97569e-016
lhumerus -37.4688 -13.2427 97.764
lradius 32.529
lwrist -26.088
lhand -25.6648 14.6786
lfingers 7.12502
lthumb 0.869504 44.6566
rfemur 189.626 43.1791 -151.407
rtibia 29.1854
rfoot -43.281 -52.3429
rtoes 1.68569e-013
lfemur 4.51871 -9.75373 -22.4705
ltibia 12.0607
lfoot -19.5746 5.28377
ltoes -2.73329e-016
83
root 9.4534 18.219 0.810548 -178.229 -4.78146 -178.693
lowerback 2.55721 0.900492 -3.44473
upperback 1.06628 1.09862 0.68506
thorax -0.417692 0.531195 2.60273
lowerneck -11.0043 2.0527 -3.07507
upperneck 19.7025 0.462848 10.1543
head 7.83189 0.616736 3.89185
rclavicle 7.67806e-015 -2.78299e-015
rhumerus -39.1804 -19.555 -81.6235
rradius 32.1113
rwrist 45.3858
rhand -35.9527 -13.6788
rfingers 7.12502
rthumb -9.0642 -43.464
lclavicle 7.67806e-015 -2.78299e-015
lhumerus -37.5146 -13.3702 97.8352
lradius 32.9148
lwrist -26.0578
lhand -25.6835 14.5773
lfingers 7.12502
lthumb 0.851475 44.5554
rfemur 192.123 45.2714 -149.176
rtibia 28.7553
rfoot -48.0226 -51.8461
rtoes 7.59357e-014
lfemur 4.93995 -9.56661 -22.5697
ltibia 11.5312
lfoot -19.4672 5.00321
ltoes -3.63279e-014
84
root 9.4583 18.2099 0.738581 -178.161 -4.78647 -178.836
lowerback 2.47088 0.92174 -3.49922
upperback 1.03203 1.12978 0.665947
thorax -0.407322 0.547665 2.61372
lowerneck -11.0812 2.0672 -3.09495
upperneck 19.7815 0.480148 10.1566
head 7.87048 0.626576 3.90134
rclavicle 1.22253e-014 -1.39149e-015
rhumerus -39.3747 -19.7868 -81.3343
rradius 32.0144
rwrist 45.3962
rhand -36.0476 -13.6898
rfingers 7.12502
rthumb -9.1557 -43.471
lclavicle 1.22253e-014 -1.39149e-015
lhumerus -37.5906 -13.7595 97.9667
lradius 33.4242
lwrist -25.7329
lhand -25.6516 14.706
lfingers 7.12502
lthumb 0.882239 44.6839
rfemur 194.516 47.0907 -146.968
rtibia 28.4036
rfoot -52.0824 -51.5647
rtoes 2.50469e-014
lfemur 5.38534 -9.40255 -22.6916
ltibia 11.0242
lfoot -19.4268 4.89053
ltoes -1.65116e-014
